<svg width="13" height="14" viewBox="0 0 13 14" fill="none" xmlns="http://www.w3.org/2000/svg">
<path d="M10.7931 2.72289C10.7849 2.64907 10.7193 2.61627 10.6701 2.61627C10.6209 2.61627 9.54651 2.53425 9.54651 2.53425C9.54651 2.53425 8.80017 1.78792 8.70996 1.71411C8.62794 1.63209 8.47212 1.6567 8.4065 1.6731C8.3983 1.6731 8.24247 1.72231 7.98823 1.80432C7.73398 1.07439 7.29931 0.410073 6.52017 0.410073H6.44635C6.23312 0.131223 5.95426 0 5.72462 0C3.9203 0 3.05095 2.2554 2.7803 3.40361C2.07497 3.62505 1.57468 3.77267 1.51727 3.79728C1.1236 3.9203 1.1154 3.9285 1.06619 4.29757C1.02518 4.57642 0 12.5072 0 12.5072L7.98003 13.9999L12.3104 13.0649C12.3186 13.0485 10.8013 2.7967 10.7931 2.72289ZM7.54535 1.91914C7.34851 1.97655 7.11067 2.05037 6.87283 2.13238V1.98475C6.87283 1.54187 6.81542 1.18101 6.7088 0.893959C7.11887 0.943168 7.37312 1.39425 7.54535 1.91914ZM6.20851 0.984176C6.31513 1.26303 6.38894 1.6567 6.38894 2.19799V2.28001C5.94606 2.41943 5.47858 2.55886 4.99469 2.71468C5.26534 1.6813 5.78203 1.17281 6.20851 0.984176ZM5.68362 0.475684C5.76563 0.475684 5.84765 0.50849 5.91326 0.557699C5.33095 0.828347 4.71584 1.50907 4.4616 2.88691C4.07613 3.00994 3.70706 3.11656 3.3544 3.23138C3.64965 2.18159 4.38778 0.475684 5.68362 0.475684Z" fill="#525252"/>
<path d="M10.671 2.59996C10.6218 2.59996 9.54737 2.51795 9.54737 2.51795C9.54737 2.51795 8.80104 1.77161 8.71082 1.6978C8.67801 1.66499 8.63701 1.64859 8.6042 1.64859L8.00549 14L12.3359 13.065C12.3359 13.065 10.8186 2.7968 10.8104 2.72298C10.7776 2.64917 10.7202 2.61636 10.671 2.59996Z" fill="#737373"/>
<path d="M6.52099 4.99479L5.9961 6.57767C5.9961 6.57767 5.52041 6.32342 4.95451 6.32342C4.10976 6.32342 4.06875 6.85652 4.06875 6.98774C4.06875 7.70947 5.95509 7.98832 5.95509 9.68602C5.95509 11.0229 5.11034 11.884 3.97033 11.884C2.59249 11.884 1.90356 11.0311 1.90356 11.0311L2.27263 9.81725C2.27263 9.81725 2.99436 10.4406 3.60127 10.4406C4.00314 10.4406 4.16717 10.1289 4.16717 9.89926C4.16717 8.95609 2.62529 8.91509 2.62529 7.35681C2.62529 6.05278 3.56026 4.78975 5.4548 4.78975C6.16013 4.78155 6.52099 4.99479 6.52099 4.99479Z" fill="white"/>
</svg>
