<svg width="28" height="32" viewBox="0 0 28 32" fill="none" xmlns="http://www.w3.org/2000/svg">
<g clip-path="url(#clip0_374_24260)">
<path d="M27.7631 17.1009H20.1981L25.5439 22.6202C25.0757 23.3302 24.5441 23.9985 23.9546 24.6071C23.9199 24.6489 23.8795 24.6907 23.839 24.7324C23.2495 25.3351 22.6023 25.884 21.9145 26.3733C21.5447 26.6358 21.1575 26.8805 20.7645 27.1072L18.9036 23.2646L17.5917 20.5557L17.1352 19.601L16.8405 19.0043L16.5688 18.4374L16.3088 17.9004C16.1527 17.5902 15.9562 17.3216 15.7135 17.1009C15.5979 16.9935 15.4766 16.898 15.3437 16.8145C15.2859 16.7727 15.2281 16.7429 15.1645 16.7071C14.7946 16.5161 14.3959 16.4207 13.9971 16.4207C13.5059 16.4207 13.0493 16.5579 12.6506 16.8085C12.5176 16.892 12.3905 16.9875 12.2749 17.1009C12.038 17.3157 11.8357 17.5842 11.6854 17.8945L11.4312 18.4195L11.1422 19.0103L10.859 19.6069L10.4025 20.5378L9.07327 23.2885L8.14861 25.2038L7.22972 27.1012C6.83674 26.8805 6.45531 26.6358 6.08545 26.3733C5.37461 25.8721 4.71001 25.2993 4.1032 24.6728C3.49639 24.0462 2.94159 23.3601 2.45036 22.6202L7.79608 17.1009H0.236945C0.0809081 16.2417 0 15.3586 0 14.4516C0 13.5447 0.0809081 12.6556 0.236945 11.7964H7.79608L2.45614 6.28305C2.94159 5.54316 3.49639 4.85698 4.1032 4.23047C4.71001 3.60395 5.37461 3.03114 6.08545 2.52993L11.4312 8.04922V0.244639C12.2634 0.0835353 13.1187 0 13.9971 0C14.8755 0 15.7366 0.0835353 16.5688 0.244639V8.04922L21.9145 2.52993C22.6254 3.03114 23.29 3.60395 23.8968 4.23047C24.5036 4.85698 25.0584 5.54317 25.5439 6.27708L20.1981 11.7964H27.7631C27.9191 12.6556 28 13.5447 28 14.4516C28 15.3586 27.9191 16.2417 27.7631 17.1009Z" fill="black"/>
<path d="M20.4583 31.6951C20.2503 31.898 19.9844 31.9994 19.7128 31.9994C19.5394 31.9994 19.366 31.9577 19.21 31.8741L16.6903 30.4719L16.2395 30.2213L14.7601 29.3979C14.5231 29.2666 14.2573 29.201 14.003 29.201C13.7487 29.201 13.4829 29.2666 13.2459 29.3979L11.7549 30.2273L11.3099 30.4719L8.79597 31.8741C8.63993 31.9577 8.46078 31.9994 8.2874 31.9994C8.02156 31.9994 7.74994 31.898 7.54767 31.6951C7.2067 31.367 7.11424 30.8478 7.31651 30.4123L7.9291 29.1413L8.58792 27.7869L9.50103 25.9014L11.4313 21.9096L11.7549 21.2413L12.2172 20.2985L12.4657 19.7854L12.5004 19.7078L13.0379 18.592C13.1939 18.2698 13.4886 18.061 13.8123 18.0073C13.8701 17.9894 13.9336 17.9834 13.9972 17.9834C14.0608 17.9834 14.1243 17.9894 14.1879 18.0013C14.2862 18.0192 14.3786 18.049 14.4711 18.0968C14.6791 18.2101 14.8467 18.3832 14.9508 18.592L15.4882 19.7138L15.5113 19.7615L15.7772 20.2985L16.2395 21.2532L16.5689 21.9334L19.4007 27.7869L20.0595 29.1413L20.6721 30.4123C20.8802 30.8478 20.7877 31.361 20.4583 31.6951Z" fill="url(#paint0_linear_374_24260)"/>
</g>
<defs>
<linearGradient id="paint0_linear_374_24260" x1="7.74854" y1="32.5994" x2="19.3649" y2="25.5891" gradientUnits="userSpaceOnUse">
<stop stop-color="#5735FC"/>
<stop offset="0.385" stop-color="#FE49FE"/>
<stop offset="0.69" stop-color="#F2A4F2"/>
<stop offset="1" stop-color="#F9C391"/>
</linearGradient>
<clipPath id="clip0_374_24260">
<rect width="28" height="32" fill="white"/>
</clipPath>
</defs>
</svg>
